<?xml version="1.0" encoding="utf-8"?>
<!-- Generator: Adobe Illustrator 16.0.0, SVG Export Plug-In . SVG Version: 6.00 Build 0)  -->
<!DOCTYPE svg PUBLIC "-//W3C//DTD SVG 1.1//EN" "http://www.w3.org/Graphics/SVG/1.1/DTD/svg11.dtd">
<svg version="1.1" id="Layer_1" xmlns="http://www.w3.org/2000/svg" xmlns:xlink="http://www.w3.org/1999/xlink" x="0px" y="0px"
	 width="48px" height="48px" viewBox="0 0 48 48" enable-background="new 0 0 48 48" xml:space="preserve">
<g id="Expanded">
	<g>
		<g>
			<path fill="#FFFFFF" d="M44,40H4c-2.206,0-4-1.794-4-4V6c0-2.206,1.794-4,4-4h40c2.206,0,4,1.794,4,4v30
				C48,38.206,46.206,40,44,40z M4,4C2.897,4,2,4.897,2,6v30c0,1.104,0.897,2,2,2h40c1.104,0,2-0.896,2-2V6c0-1.103-0.896-2-2-2H4z"
				/>
		</g>
		<g>
			<path fill="#FFFFFF" d="M38,46H10c-0.552,0-1-0.447-1-1s0.448-1,1-1h28c0.552,0,1,0.447,1,1S38.552,46,38,46z"/>
		</g>
		<g>
			<path fill="#FFFFFF" d="M31.02,46c-0.006,0-0.013,0-0.02,0H17c-0.321,0-0.623-0.154-0.811-0.416s-0.239-0.596-0.138-0.9l2-6
				C18.188,38.275,18.569,38,19,38h10c0.432,0,0.813,0.275,0.949,0.684l1.939,5.821C31.973,44.65,32.02,44.82,32.02,45
				C32.02,45.553,31.572,46,31.02,46z M18.387,44h11.226l-1.334-4h-8.558L18.387,44z"/>
		</g>
		<g>
			<path fill="#FFFFFF" d="M44,32H4V6h40V32z M6,30h36V8H6V30z"/>
		</g>
		<g>
			<circle fill="#FFFFFF" cx="24" cy="35" r="2"/>
		</g>
	</g>
</g>
</svg>
